<svg xmlns="http://www.w3.org/2000/svg" viewBox="0 0 281.5 200.26"><defs><style>.cls-1{fill:#fcfdf7;}</style></defs><g id="Calque_1" data-name="Calque 1"><path class="cls-1" d="M261.05,98.78l-58-58,0,0-1.45-1.45a85.52,85.52,0,0,0-60.89-25.22l-2.2,0-.58,0-.32,0h-.27l-1,0-.79,0-.31,0-.28,0-.8,0-.86.07-.28,0-.27,0-.76.07-.88.1-.23,0-.2,0-.87.1-.8.11-.21,0-1.19.17-.68.11-.17,0-1.37.23-.51.1-.14,0-1.61.32-.33.07c-.7.14-1.34.29-2,.44A84.83,84.83,0,0,0,89.4,31.1l-.08.06c-.54.4-1,.79-1.55,1.18l-.71.57-.21.17-.23.18-.47.38-1.24,1-.14.12-.23.2q-.65.55-1.29,1.14l-.11.1-.2.18-1.19,1.1-.11.11-.12.1-.17.16-.95.93-.05,0-.18.18-.3.29-.07.07-.6.61L79,40.2l-.15.16c-.22.22-.44.44-.65.67l-.06.07L20.48,98.78,19,100.23l1.45,1.46,57.65,57.64h0l.08.08.61.64.18.18.16.17.63.64.08.09.27.26.18.17,1,1,.22.2.13.13L83,164.06l.16.14.11.09,1.33,1.18.2.17.13.11,1.28,1.08.42.34.22.18.22.17.75.61,1.49,1.13,0,0,.1.07A84.86,84.86,0,0,0,120.84,184l2,.44.08,0,.28.05c.54.12,1.09.22,1.63.32l.14,0,.5.09,1.37.23.18,0,.67.11,1.2.17.2,0,.8.11.9.1.18,0,.21,0,.89.09.78.07.26,0,.25,0,.88.07.81.06h.28l.32,0,.77.05,1,0H138l.58,0c.73,0,1.46,0,2.2,0a85.56,85.56,0,0,0,60.89-25.22q.85-.85,1.68-1.74l57.71-57.7,1.45-1.46ZM79.63,42.54l.09-.09-.09.09ZM61.22,67.16a86.51,86.51,0,0,0,0,66.14L28.15,100.23ZM140.77,179.9A79.67,79.67,0,1,1,195.66,42.49h0L197.1,44l56.29,56.28L220.32,133.3a86.17,86.17,0,0,0,6.56-33.07V97H188.79a48.14,48.14,0,1,0-13.87,37.13l1.45-1.46-1.46-1.45-1.65-1.64-1.46-1.45-1.45,1.46a41.66,41.66,0,1,1,12-32.59H138.71v6.44h81.66a79.77,79.77,0,0,1-79.6,76.45Z"/></g></svg>